# xmcd
#
# Track frame offsets: 
#        150
#        12104
#        26368
#        46433
#        61702
#        74428
#        90923
#        104848
#        116986
#        128623
#        145118
#        164809
#        177833
#        193923
#
# Disc length: 2827 seconds
#
# Revision: 3
# Processed by: cddbd v1.5.2PL0 Copyright (c) Steve Scherf et al.
# Submitted via: ExactAudioCopyFreeDBPlugin 1.0
#
DISCID=c30b090e
DTITLE=Ike and Tina Turner - The Collection [Entertain Me Europe]
DYEAR=2008
DGENRE=Rhythm and Blues
TTITLE0=Fun, Fun, Fun
TTITLE1=You Cheat, I Cheat
TTITLE2=Shuckin'
TTITLE3=Drift Away
TTITLE4=Rough Bootsie
TTITLE5=Eight Ball
TTITLE6=Help Me Make it Through the Night
TTITLE7=Money
TTITLE8=Sexy Ida
TTITLE9=Going Our Separate Ways
TTITLE10=Mocha Soul
TTITLE11=Movin' On
TTITLE12=Hully Gully (III)
TTITLE13=Matuse
EXTD=
EXTT0=
EXTT1=
EXTT2=
EXTT3=
EXTT4=
EXTT5=
EXTT6=
EXTT7=
EXTT8=
EXTT9=
EXTT10=
EXTT11=
EXTT12=
EXTT13=
PLAYORDER=
